<svg xmlns="http://www.w3.org/2000/svg" width="197" height="31" fill="none"><path fill="#F2F2F2" d="M78.771 7.546h-2.575v20.116h2.575V7.546ZM100.688 28.238c-5.961 0-10.805-4.844-10.805-10.805 0-5.961 4.844-10.806 10.805-10.806 5.961 0 10.805 4.845 10.805 10.806 0 5.942-4.844 10.805-10.805 10.805Zm0-19c-4.502 0-8.176 3.674-8.176 8.177 0 4.502 3.674 8.176 8.176 8.176 4.502 0 8.176-3.674 8.176-8.176 0-4.503-3.674-8.177-8.176-8.177ZM116.824 27.662h4.701l12.75-8.698 2.341-1.585-2.341-1.603-12.408-8.464h-4.701l14.768 10.066-15.11 10.284ZM139.57 19.45l-2.342 1.584 9.725 6.628h4.664L139.57 19.45ZM139.57 15.29l11.705-7.978h-4.664l-9.383 6.393 2.342 1.585ZM164.188 7.546h-2.575v20.116h2.575V7.546ZM186.195 28.238c-5.961 0-10.806-4.844-10.806-10.805 0-5.961 4.845-10.806 10.806-10.806 5.961 0 10.805 4.845 10.805 10.806 0 5.942-4.844 10.805-10.805 10.805Zm0-19c-4.503 0-8.177 3.674-8.177 8.177 0 4.502 3.674 8.176 8.177 8.176 4.502 0 8.176-3.674 8.176-8.176 0-4.503-3.674-8.177-8.176-8.177Z"/><path fill="url(#a)" d="M22.53 15.02.503 0H7.51l18.53 12.624 3.495 2.395-3.494 2.396L7.005 30.38H0l22.53-15.362Zm11.399 3.097-3.494 2.377 14.497 9.887h6.97L33.929 18.117Zm0-6.195L51.416 0h-6.97L30.453 9.545l3.476 2.377Z"/><defs><linearGradient id="a" x1="-.002" x2="51.916" y1="15.199" y2="15.199" gradientUnits="userSpaceOnUse"><stop stop-color="#fff" stop-opacity="0"/><stop offset="1" stop-color="#CBD5E2"/></linearGradient></defs></svg>
