<svg xmlns="http://www.w3.org/2000/svg" width="153" height="34" viewBox="0 0 151 34"><path d="M66.621.855h1.945v10.5h-1.945ZM77.2 11.504c-1.07 0-2.035-.23-2.89-.691a5.21 5.21 0 0 1-2.024-1.934 5.353 5.353 0 0 1-.734-2.774c0-1.02.246-1.94.734-2.757A5.082 5.082 0 0 1 74.31 1.41c.855-.469 1.82-.703 2.89-.703 1.067 0 2.028.234 2.887.703a5.126 5.126 0 0 1 2.023 1.922c.489.82.73 1.742.73 2.773 0 1.032-.241 1.954-.73 2.774a5.21 5.21 0 0 1-2.023 1.934c-.86.46-1.82.69-2.89.69Zm0-1.711c.696 0 1.324-.152 1.887-.465a3.464 3.464 0 0 0 1.316-1.316 3.87 3.87 0 0 0 .48-1.907c0-.699-.163-1.332-.48-1.89a3.369 3.369 0 0 0-1.316-1.32 3.759 3.759 0 0 0-1.887-.48 3.763 3.763 0 0 0-1.89.48c-.555.312-.996.75-1.317 1.32a3.773 3.773 0 0 0-.48 1.89c0 .7.164 1.336.48 1.907.32.558.762 1 1.317 1.316a3.81 3.81 0 0 0 1.89.465Zm14.828 1.562-2.843-3.992-2.817 3.992h-2.219L88.043 6 84.359.855h2.204l2.68 3.735L91.89.855h2.113l-3.668 5.07 3.937 5.43Zm4.325-10.5H98.3v10.5h-1.95Zm10.578 10.649c-1.067 0-2.032-.23-2.89-.691a5.23 5.23 0 0 1-2.024-1.934 5.387 5.387 0 0 1-.73-2.774c0-1.02.245-1.94.73-2.757a5.107 5.107 0 0 1 2.023-1.938c.86-.469 1.824-.703 2.89-.703 1.067 0 2.032.234 2.891.703a5.142 5.142 0 0 1 2.02 1.922c.488.82.734 1.742.734 2.773 0 1.032-.246 1.954-.734 2.774a5.226 5.226 0 0 1-2.02 1.934c-.86.46-1.824.69-2.89.69Zm0-1.711c.699 0 1.328-.152 1.886-.465a3.437 3.437 0 0 0 1.317-1.316 3.82 3.82 0 0 0 .48-1.907 3.773 3.773 0 0 0-.48-1.89 3.369 3.369 0 0 0-1.317-1.32 3.748 3.748 0 0 0-1.886-.48 3.748 3.748 0 0 0-1.887.48c-.559.312-1 .75-1.316 1.32a3.733 3.733 0 0 0-.48 1.89c0 .7.16 1.336.48 1.907.316.558.757 1 1.316 1.316a3.785 3.785 0 0 0 1.887.465ZM66.62 19.602h4.582c1.117 0 2.11.222 2.98.66a4.796 4.796 0 0 1 2.02 1.843c.48.793.719 1.707.719 2.747 0 1.039-.238 1.96-.719 2.761a4.917 4.917 0 0 1-2.02 1.844c-.87.43-1.863.645-2.98.645h-4.582Zm4.492 8.847c.77 0 1.442-.14 2.02-.433a3.129 3.129 0 0 0 1.347-1.258c.32-.551.48-1.184.48-1.906 0-.72-.16-1.348-.48-1.887a3.029 3.029 0 0 0-1.347-1.262c-.578-.3-1.25-.45-2.02-.45h-2.547v7.196Zm11.203-6.445c1.176 0 2.075.285 2.696.855.629.559.941 1.407.941 2.547v4.696h-1.766v-.977a2.174 2.174 0 0 1-.988.809c-.418.183-.93.273-1.527.273-.598 0-1.125-.102-1.574-.3a2.567 2.567 0 0 1-1.047-.856 2.27 2.27 0 0 1-.36-1.246c0-.72.266-1.293.793-1.723.54-.441 1.383-.66 2.532-.66h2.066V25.3c0-.559-.168-.988-.508-1.29-.328-.3-.824-.448-1.484-.448-.45 0-.89.07-1.332.21-.399.122-.77.32-1.094.582l-.73-1.363a4.531 4.531 0 0 1 1.511-.734 6.735 6.735 0 0 1 1.871-.254Zm-.254 6.836c.47 0 .883-.106 1.243-.313.367-.218.629-.53.777-.93v-.929h-1.93c-1.078 0-1.617.355-1.617 1.062 0 .344.133.614.403.813.269.2.644.297 1.124.297Zm11.551.828a2.246 2.246 0 0 1-.808.402 3.53 3.53 0 0 1-.989.137c-.879 0-1.558-.23-2.039-.691-.476-.461-.718-1.13-.718-2.008v-3.856h-1.317v-1.5h1.32v-1.828h1.872v1.828h2.14v1.5h-2.14v3.809c0 .39.093.691.285.902.187.2.46.297.82.297.422 0 .77-.11 1.05-.328Zm5.043-7.664c1.176 0 2.074.285 2.696.855.628.559.941 1.407.941 2.547v4.696h-1.766v-.977a2.195 2.195 0 0 1-.988.809c-.418.183-.93.273-1.527.273-.598 0-1.125-.102-1.575-.3a2.567 2.567 0 0 1-1.046-.856 2.27 2.27 0 0 1-.36-1.246c0-.72.266-1.293.793-1.723.54-.441 1.383-.66 2.531-.66h2.067V25.3c0-.559-.168-.988-.508-1.29-.332-.3-.824-.448-1.484-.448-.45 0-.89.07-1.332.21-.399.122-.77.32-1.094.582l-.73-1.363a4.531 4.531 0 0 1 1.511-.734 6.735 6.735 0 0 1 1.871-.254Zm-.254 6.836c.47 0 .883-.106 1.243-.313a1.8 1.8 0 0 0 .777-.93v-.929h-1.93c-1.078 0-1.62.355-1.62 1.062 0 .344.136.614.405.813.27.2.645.297 1.125.297Zm9.215 1.367a7.25 7.25 0 0 1-1.902-.254c-.621-.172-1.113-.387-1.485-.644l.72-1.426c.359.238.788.433 1.288.586a5.75 5.75 0 0 0 1.496.207c1.118 0 1.68-.293 1.68-.883 0-.281-.144-.477-.434-.586-.28-.11-.734-.215-1.363-.316a11.337 11.337 0 0 1-1.617-.344 2.542 2.542 0 0 1-1.078-.676c-.3-.328-.45-.785-.45-1.363 0-.762.313-1.367.942-1.817.64-.457 1.5-.687 2.574-.687.551 0 1.102.062 1.649.195.55.117 1 .281 1.347.492l-.718 1.426a4.44 4.44 0 0 0-2.29-.601c-.55 0-.968.086-1.257.257-.281.16-.422.375-.422.645 0 .3.152.516.45.645.312.12.784.234 1.421.343.64.102 1.164.215 1.574.348.41.129.758.348 1.047.66.3.309.45.75.45 1.316 0 .754-.325 1.352-.973 1.801-.649.45-1.532.676-2.649.676Zm10.113-8.203c.782 0 1.473.168 2.082.508.622.34 1.106.82 1.454 1.441.351.621.523 1.332.523 2.145 0 .808-.172 1.527-.523 2.16a3.65 3.65 0 0 1-1.454 1.437c-.609.34-1.3.512-2.082.512-1.074 0-1.93-.36-2.558-1.078v3.883H113.3V22.094h1.781v1.047a2.876 2.876 0 0 1 1.137-.852c.48-.195.996-.293 1.511-.285Zm-.207 6.598c.688 0 1.254-.23 1.692-.692.45-.457.672-1.062.672-1.812s-.223-1.356-.672-1.817c-.438-.457-1.004-.687-1.692-.687-.449 0-.855.105-1.214.312-.36.2-.645.492-.852.871-.21.38-.316.82-.316 1.32 0 .5.105.938.316 1.321.207.379.492.672.852.883.359.199.765.3 1.214.3Zm9.442-6.598c1.18 0 2.078.285 2.7.855.624.559.94 1.407.94 2.547v4.696h-1.765v-.977c-.246.363-.59.645-.988.809-.422.183-.93.273-1.528.273-.601 0-1.125-.102-1.574-.3a2.567 2.567 0 0 1-1.047-.856 2.27 2.27 0 0 1-.36-1.246c0-.72.266-1.293.794-1.723.539-.441 1.383-.66 2.531-.66h2.066V25.3c0-.559-.172-.988-.507-1.29-.332-.3-.825-.448-1.485-.448-.449 0-.894.07-1.332.21-.398.122-.77.32-1.094.582l-.734-1.363a4.568 4.568 0 0 1 1.512-.734 6.735 6.735 0 0 1 1.87-.254Zm-.254 6.836c.473 0 .887-.106 1.246-.313.367-.218.629-.53.777-.93v-.929h-1.933c-1.078 0-1.617.355-1.617 1.062 0 .344.136.614.406.813.27.2.644.297 1.12.297Zm10.488 1.367c-.828 0-1.574-.176-2.23-.527a3.812 3.812 0 0 1-1.543-1.453 4.11 4.11 0 0 1-.555-2.13c0-.792.184-1.495.555-2.113a3.886 3.886 0 0 1 1.527-1.457c.656-.351 1.406-.523 2.246-.523.79 0 1.477.16 2.067.48a3.088 3.088 0 0 1 1.347 1.38l-1.437.84a2.209 2.209 0 0 0-.871-.825c-.34-.192-.73-.29-1.121-.285-.7 0-1.278.23-1.739.687-.457.45-.687 1.055-.687 1.817 0 .757.222 1.367.676 1.828.457.449 1.043.676 1.75.676.41 0 .785-.09 1.12-.27.352-.191.641-.469.872-.84l1.437.84a3.284 3.284 0 0 1-1.363 1.395c-.59.32-1.273.48-2.05.48Zm12.88-4.066c0 .129-.009.316-.028.554h-6.274c.11.59.391 1.063.852 1.41.469.34 1.047.512 1.738.512.875 0 1.602-.289 2.172-.87l1 1.155c-.363.434-.832.77-1.36.973a4.97 4.97 0 0 1-1.859.332c-.879 0-1.652-.176-2.32-.527a3.852 3.852 0 0 1-1.559-1.453c-.359-.63-.539-1.34-.539-2.13 0-.78.176-1.48.528-2.097a3.805 3.805 0 0 1 1.48-1.473c.63-.351 1.336-.523 2.125-.523.781 0 1.473.176 2.082.523.617.34 1.098.825 1.438 1.453.351.622.523 1.34.523 2.16Zm-4.044-2.637c-.597 0-1.105.18-1.527.539-.406.348-.656.82-.746 1.41h4.535c-.078-.582-.324-1.05-.734-1.41-.41-.36-.918-.54-1.528-.54Zm0 0" style="stroke:none;
-rule:nonzero;fill-opacity:1"/><path d="M8.84.855H1.383l23.336 14.477L.848 30.105h7.46L28.34 17.668l3.73-2.332-3.73-2.332Zm24.187 19.723 15.348 9.524h7.352L36.652 18.344ZM47.84.855h7.355L36.652 12.32l-3.625-2.234Zm0 0" style="stroke:none;fill-rule:evenodd;fill-opacity:1"/></svg>
