<svg clip-rule="evenodd" stroke-linecap="round" stroke-linejoin="round" viewBox="0 0 512 512" xmlns="http://www.w3.org/2000/svg"><g fill="none" stroke="#000" stroke-linecap="round" stroke-linejoin="round"><path d="m-112.651 256.363c5.414-15.537 29.1038-2.965 19.9359 10.574-.8227 2.487-1.4745 5.026-2.0903 7.571-1.2399 4.748-1.6282 10.233-5.0638 14.049-9.2278 10.75-26.5038-3.188-18.7498-14.811.722-2.456 1.332-4.947 2.252-7.342 1.204-3.36 3.716-10.041 3.716-10.041z" stroke-width="60.7615"/><path d="m-109.628 346.967c5.306 10.291-11.71 18.61-16.565 8.098-2.961-5.774-3.704-12.316-3.855-18.726.882-75.101 13.057-149.668 19.912-224.332.509-3.705 1.746-7.358 4.083-10.323 3.012-3.1643 7.5439-5.2448 11.9526-4.9189 14.4904-1.6296 13.2173 22.6949-.9565 19.3119 1.9931-1.028 6.1633-5.271 3.9598.059-6.6987 70.134-17.5049 140.032-20.8709 210.517.785 6.669 2.34 20.314 2.34 20.314z" stroke-width="60.7615"/><g stroke-width="30"><path d="m201.28 256c0-26.393 21.395-47.789 47.788-47.789 13.942 0 26.49 5.971 35.226 15.494 7.801 8.505 12.563 19.844 12.563 32.295 0 26.393-21.396 47.789-47.789 47.789s-47.788-21.396-47.788-47.789z"/><path d="m222.69 44.9547c15.571-16.2253 41.348-16.7553 57.573-1.1839 16.225 15.5715 16.755 41.3478 1.184 57.5732-15.572 16.225-41.348 16.755-57.573 1.184-16.226-15.5718-16.756-41.3481-1.184-57.5733z"/><path d="m252 114.21-.587 92.383"/><path d="m436.284 155.159c20.957 8.157 31.333 31.758 23.177 52.715-8.157 20.957-31.758 31.334-52.715 23.177-20.957-8.156-31.334-31.758-23.177-52.715 8.156-20.957 31.757-31.334 52.715-23.177z"/><path d="m383.569 208.792-85.542 34.895"/><path d="m415.224 395.772c-.831 22.473-19.723 40.017-42.196 39.186-22.473-.832-40.018-19.724-39.186-42.197.831-22.473 19.723-40.017 42.196-39.186 22.473.832 40.017 19.724 39.186 42.197z"/><path d="m347.267 363.565-61.022-69.363"/><path d="m80.8673 396.826c.8313 22.473 19.7227 40.017 42.1967 39.186 22.473-.831 40.017-19.723 39.185-42.196-.831-22.473-19.723-40.017-42.196-39.186-22.4729.831-40.017 19.723-39.1857 42.196z"/><path d="m148.824 364.62 61.022-69.363"/><path d="m63.7596 155.159c-20.9571 8.157-31.3339 31.758-23.1773 52.715s31.7579 31.334 52.715 23.177c20.9567-8.156 31.3337-31.758 23.1777-52.715-8.157-20.957-31.7583-31.334-52.7154-23.177z"/><path d="m116.475 208.792 85.541 34.895"/></g></g></svg>
