<svg width="166" height="36" fill="none" xmlns="http://www.w3.org/2000/svg"><path d="M.173.822h1.664v8.96H.173V.822ZM9.215 9.91c-.914 0-1.737-.197-2.47-.59a4.468 4.468 0 0 1-1.729-1.65 4.57 4.57 0 0 1-.627-2.368c0-.87.209-1.656.627-2.355a4.35 4.35 0 0 1 1.728-1.652c.734-.4 1.557-.601 2.47-.601.914 0 1.737.2 2.47.601.735.393 1.31.939 1.729 1.639.418.7.627 1.489.627 2.368 0 .879-.209 1.668-.627 2.368-.418.7-.994 1.25-1.728 1.65-.734.393-1.557.59-2.47.59Zm0-1.46c.597 0 1.134-.132 1.612-.396a2.975 2.975 0 0 0 1.127-1.127c.273-.486.41-1.028.41-1.625 0-.598-.137-1.135-.41-1.613a2.86 2.86 0 0 0-1.127-1.126 3.192 3.192 0 0 0-1.612-.41c-.598 0-1.135.136-1.613.41a2.86 2.86 0 0 0-1.127 1.126 3.192 3.192 0 0 0-.41 1.613c0 .597.137 1.139.41 1.625.273.478.649.854 1.127 1.127a3.273 3.273 0 0 0 1.613.397Zm12.677 1.332L19.46 6.377l-2.407 3.405H15.16l3.328-4.57-3.149-4.39h1.882l2.29 3.187L21.777.822h1.805l-3.136 4.326 3.367 4.634h-1.92ZM25.59.822h1.664v8.96H25.59V.822ZM34.63 9.91c-.913 0-1.736-.197-2.47-.59a4.468 4.468 0 0 1-1.728-1.65 4.57 4.57 0 0 1-.628-2.368c0-.87.21-1.656.628-2.355a4.349 4.349 0 0 1 1.728-1.652c.733-.4 1.557-.601 2.47-.601.913 0 1.736.2 2.47.601.734.393 1.31.939 1.728 1.639.419.7.628 1.489.628 2.368 0 .879-.21 1.668-.628 2.368-.418.7-.994 1.25-1.728 1.65-.733.393-1.557.59-2.47.59Zm0-1.46c.597 0 1.135-.132 1.613-.396a2.975 2.975 0 0 0 1.126-1.127c.273-.486.41-1.028.41-1.625 0-.598-.137-1.135-.41-1.613a2.86 2.86 0 0 0-1.126-1.126 3.192 3.192 0 0 0-1.613-.41c-.597 0-1.135.136-1.613.41a2.86 2.86 0 0 0-1.126 1.126 3.192 3.192 0 0 0-.41 1.613c0 .597.137 1.139.41 1.625.273.478.648.854 1.126 1.127a3.274 3.274 0 0 0 1.613.397ZM.173 16.823H4.09c.956 0 1.805.188 2.547.563a4.068 4.068 0 0 1 1.728 1.574c.41.675.615 1.455.615 2.343 0 .887-.205 1.672-.615 2.355a4.176 4.176 0 0 1-1.728 1.574c-.742.367-1.591.55-2.547.55H.173v-8.96Zm3.84 7.552c.657 0 1.233-.124 1.728-.371a2.705 2.705 0 0 0 1.152-1.076c.273-.469.41-1.01.41-1.625s-.137-1.152-.41-1.613a2.606 2.606 0 0 0-1.152-1.075c-.495-.256-1.07-.384-1.728-.384H1.837v6.144h2.176Zm9.577-5.504c1.007 0 1.775.243 2.304.73.538.477.806 1.202.806 2.175v4.007h-1.51v-.832c-.196.298-.478.529-.845.69-.358.154-.793.231-1.305.231-.512 0-.96-.085-1.344-.256a2.186 2.186 0 0 1-.896-.73 1.91 1.91 0 0 1-.308-1.062c0-.614.226-1.105.679-1.472.46-.375 1.182-.563 2.163-.563H15.1v-.102c0-.478-.145-.845-.435-1.101-.281-.256-.704-.384-1.267-.384-.384 0-.764.06-1.14.18-.366.119-.678.285-.934.498l-.627-1.165c.359-.272.79-.482 1.293-.627a5.755 5.755 0 0 1 1.6-.217Zm-.218 5.836c.402 0 .756-.09 1.063-.268a1.52 1.52 0 0 0 .665-.794v-.793h-1.65c-.922 0-1.383.303-1.383.908 0 .29.115.52.345.692.23.17.55.255.96.255Zm9.875.704a1.88 1.88 0 0 1-.692.346 3.016 3.016 0 0 1-.844.115c-.751 0-1.332-.196-1.741-.588-.41-.393-.615-.965-.615-1.716v-3.29H18.23v-1.28h1.126v-1.56h1.6v1.56h1.83v1.28h-1.83v3.252c0 .333.082.589.244.768.162.17.396.256.704.256.358 0 .657-.094.896-.282l.448 1.14Zm4.311-6.54c1.007 0 1.775.243 2.304.73.538.477.806 1.202.806 2.175v4.007h-1.51v-.832c-.196.298-.478.529-.845.69-.358.154-.793.231-1.305.231-.512 0-.96-.085-1.344-.256a2.186 2.186 0 0 1-.896-.73 1.91 1.91 0 0 1-.308-1.062c0-.614.226-1.105.679-1.472.46-.375 1.182-.563 2.163-.563h1.766v-.102c0-.478-.145-.845-.435-1.101-.281-.256-.704-.384-1.267-.384-.384 0-.764.06-1.14.18-.366.119-.678.285-.934.498l-.627-1.165c.359-.272.79-.482 1.293-.627a5.755 5.755 0 0 1 1.6-.217Zm-.218 5.836c.401 0 .756-.09 1.063-.268a1.52 1.52 0 0 0 .665-.794v-.793h-1.65c-.922 0-1.383.303-1.383.908 0 .29.115.52.345.692.23.17.55.255.96.255Zm7.878 1.165a6.118 6.118 0 0 1-1.626-.217c-.529-.145-.951-.329-1.267-.55l.614-1.217c.308.205.675.372 1.101.5.435.119.862.179 1.28.179.956 0 1.434-.252 1.434-.755 0-.24-.124-.406-.371-.5-.24-.093-.628-.183-1.165-.268a9.73 9.73 0 0 1-1.383-.295 2.188 2.188 0 0 1-.921-.576c-.256-.282-.384-.67-.384-1.165 0-.648.269-1.165.806-1.549.546-.392 1.28-.588 2.202-.588.47 0 .939.055 1.408.166.47.102.853.243 1.152.422l-.615 1.216c-.58-.34-1.233-.511-1.958-.511-.47 0-.828.072-1.075.217-.24.137-.359.32-.359.55 0 .256.128.44.384.55.265.103.67.201 1.216.295.546.086.994.184 1.344.295.35.11.649.298.896.563.256.265.384.64.384 1.126 0 .64-.277 1.152-.832 1.536-.554.384-1.31.576-2.265.576Zm8.648-7.001c.666 0 1.259.145 1.78.435.528.29.942.7 1.24 1.229.3.529.449 1.139.449 1.83 0 .691-.15 1.306-.448 1.843-.299.53-.713.939-1.242 1.23-.52.29-1.113.434-1.779.434-.922 0-1.651-.307-2.189-.921v3.315h-1.6v-9.319H41.6v.896c.265-.324.59-.567.973-.73a3.355 3.355 0 0 1 1.293-.242Zm-.18 5.632c.59 0 1.072-.197 1.447-.59.384-.392.576-.908.576-1.548s-.192-1.156-.576-1.549c-.375-.392-.857-.588-1.446-.588-.384 0-.73.09-1.037.268-.307.171-.55.418-.73.743-.179.324-.268.7-.268 1.126 0 .427.09.802.268 1.127.18.324.423.576.73.755.307.17.653.256 1.037.256Zm8.074-5.632c1.007 0 1.775.243 2.304.73.538.477.806 1.202.806 2.175v4.007h-1.51v-.832c-.196.298-.478.529-.845.69-.358.154-.793.231-1.305.231-.512 0-.96-.085-1.344-.256a2.186 2.186 0 0 1-.896-.73 1.91 1.91 0 0 1-.308-1.062c0-.614.227-1.105.679-1.472.46-.375 1.182-.563 2.163-.563h1.766v-.102c0-.478-.145-.845-.435-1.101-.281-.256-.704-.384-1.267-.384-.384 0-.764.06-1.14.18-.366.119-.678.285-.934.498l-.627-1.165c.359-.272.79-.482 1.293-.627a5.755 5.755 0 0 1 1.6-.217Zm-.218 5.836c.401 0 .756-.09 1.063-.268a1.52 1.52 0 0 0 .665-.794v-.793h-1.65c-.922 0-1.383.303-1.383.908 0 .29.115.52.345.692.23.17.55.255.96.255Zm8.964 1.165c-.708 0-1.344-.149-1.907-.448a3.303 3.303 0 0 1-1.318-1.241 3.522 3.522 0 0 1-.474-1.818c0-.674.158-1.276.474-1.805a3.327 3.327 0 0 1 1.305-1.241c.564-.299 1.203-.448 1.92-.448.675 0 1.263.136 1.767.41a2.65 2.65 0 0 1 1.152 1.177l-1.23.717a1.888 1.888 0 0 0-.742-.704 1.935 1.935 0 0 0-.96-.243c-.597 0-1.092.196-1.484.588-.393.384-.59.9-.59 1.55 0 .648.193 1.168.577 1.56.392.385.892.577 1.497.577.35 0 .67-.077.96-.23.3-.163.547-.402.743-.717l1.229.716a2.799 2.799 0 0 1-1.165 1.19c-.503.274-1.088.41-1.754.41Zm11.011-3.468c0 .11-.008.268-.025.473h-5.363c.093.504.337.905.73 1.203.4.29.895.436 1.484.436.75 0 1.37-.248 1.856-.743l.858.986a2.889 2.889 0 0 1-1.165.832c-.47.188-.999.281-1.587.281-.751 0-1.413-.149-1.984-.448a3.283 3.283 0 0 1-1.332-1.241 3.597 3.597 0 0 1-.46-1.818c0-.666.149-1.263.448-1.792.307-.537.73-.956 1.267-1.254.537-.299 1.143-.448 1.817-.448.666 0 1.26.15 1.78.448.529.29.938.704 1.228 1.241.3.53.448 1.144.448 1.843Zm-3.456-2.253c-.512 0-.947.153-1.305.46-.35.3-.563.7-.64 1.204h3.878c-.068-.495-.277-.896-.627-1.204-.35-.307-.785-.46-1.306-.46Z" fill="#000000"/></svg>
